<svg width="1024" height="1024" viewBox="0 0 1024 1024" xmlns="http://www.w3.org/2000/svg" style="display:block" preserveAspectRatio="xMidYMid meet"><svg x="361" y="374" width="302" height="288" xmlns="http://www.w3.org/2000/svg" style="display:block" preserveAspectRatio="none"><svg version="1.1" xmlns="http://www.w3.org/2000/svg" style="display: block;" width="302" height="288" viewBox="0.00 0.08 2048.00 1953.06" preserveAspectRatio="none"><g id="svg-group-e96b32e2-01c7-4bf7-bfb3-9099e090ef00">
<path transform="translate(0,0)" fill="rgba(0, 0, 0, 1)" d="M 0 935.01 C 16.762 918.397 9.64512 907.525 38.8605 896.772 C 71.3349 884.82 103.365 877.654 136.989 869.9 C 187.384 858.595 237.564 846.346 287.5 833.16 C 312.993 826.324 371.245 813.217 388.976 793.436 C 407.655 768.515 408.258 729.727 417.886 700.031 C 436.373 643.013 467.507 597.499 514.839 560.709 C 521.693 555.382 548.725 539.748 547.793 531.394 C 545.882 514.253 539.381 496.02 535.1 479.236 C 502.454 352.577 468.95 222.923 472.527 91.1048 C 473.177 67.1381 472.74 32.0973 487.059 11.4908 C 488.157 9.33744 496.539 3.22203 498.831 3.8457 C 513.914 7.95009 530.05 17.6859 543.847 25.4932 C 616.024 66.3371 679.726 121.363 742.307 175.294 C 772.19 201.046 801.368 234.887 828.088 263.873 C 870.413 310.063 908.615 357.107 943.331 409.285 C 949.609 418.721 959.356 426.023 969.874 429.4 C 991.299 437.427 1012.36 447.526 1032.52 458.316 C 1054.54 470.104 1073.21 489.985 1095.47 500.362 C 1098.99 501.829 1130.87 489.602 1137.64 487.516 C 1149.82 483.796 1162.1 480.406 1174.47 477.349 C 1283.45 452.512 1396.97 455.903 1504.27 487.201 C 1513.74 475.196 1525.22 464.911 1534.4 453.336 C 1607.34 361.42 1696.24 284.254 1798.32 226.099 C 1855.94 193.28 1857.55 192.762 1869.35 260.338 C 1886 352.11 1891.91 445.51 1886.97 538.65 C 1884.52 587.823 1879.5 636.834 1871.94 685.483 C 1869.05 702.629 1865.9 719.73 1862.48 736.778 C 1860.3 747.501 1853.95 776.485 1854.36 786.671 C 1854.64 793.675 1866.54 824.552 1869.52 833.283 C 1873.1 843.935 1876.43 854.669 1879.52 865.475 C 1892.16 909.389 1897.83 954.853 1899.34 1000.41 C 1899.67 1010.58 1896.35 1043.67 1898.59 1051.1 C 1916.04 1053.69 1930.05 1047.74 1946.32 1046.94 C 1975.09 1045.52 2029.53 1032.62 2048 1061.22 L 2048 1075.4 C 2044.99 1079.29 2038.16 1087.33 2033.4 1088.7 C 2006.05 1096.55 1976.08 1094.6 1948.17 1100.56 C 1929.38 1104.58 1906.7 1104.32 1889.55 1112.89 C 1889.17 1114.1 1888.83 1115.31 1888.51 1116.54 C 1886.49 1124.21 1877.71 1158.22 1880.29 1166.68 C 1881.53 1169.14 1887.67 1171.13 1889.86 1171.27 C 1924.93 1173.38 1959.05 1177.56 1993.48 1184.61 C 2012.81 1188.57 2040.85 1196.89 2033.12 1222.87 C 2026.01 1246.74 1995.95 1237.56 1977.96 1234.91 L 1913.43 1225.13 C 1905.51 1223.9 1867.91 1216.44 1862.15 1222.21 C 1852.52 1231.86 1841.9 1259.17 1838.66 1272.81 C 1872.97 1294.21 1975.18 1325.28 1985.64 1366.64 C 1985.17 1368.4 1984.67 1370.16 1984.13 1371.9 C 1971.71 1411.09 1929.31 1378.46 1908.22 1366.51 C 1876.97 1348.81 1845.79 1332.63 1811.5 1321.44 C 1792.62 1341.41 1774.23 1371.52 1755.2 1389.74 C 1686.11 1455.88 1599.12 1506.87 1508.11 1532.75 C 1389.86 1567.65 1263.33 1561.86 1148.77 1516.31 C 1098.83 1496.3 1047.82 1467.19 1005.42 1434.07 C 996.398 1427.02 985.553 1416.84 975.841 1411.42 C 967.49 1415.22 942.567 1442.71 934.569 1450.69 C 838.478 1546.55 739.135 1649.07 686.164 1776.17 C 672.188 1809.7 664.058 1818.04 636.029 1789.48 C 633.95 1702 635.639 1612.23 635.78 1524.55 L 635.885 1452.65 C 635.866 1428.55 636.783 1401.16 631.395 1377.83 C 616.545 1313.54 529.087 1330.05 480.459 1333.16 C 440.866 1335.69 403.096 1336.51 363.151 1335.75 C 281.655 1334.21 213.916 1297.9 154.557 1244.5 C 89.1165 1177.82 38.4169 1078.43 13.4543 988.805 C 10.2979 977.414 10.9897 954.033 0 948.222 L 0 935.01 z M 621.579 494.034 C 653.772 481.902 686.306 466.564 720.263 460.963 C 725.399 460.116 734.637 461.62 738.891 463.816 C 765.954 477.786 764.574 511.452 738.669 526.071 C 722.169 536.465 702.941 541.777 685.5 550.071 C 655.262 564.451 624.964 580.365 596.96 598.629 C 576.544 611.944 565.487 624.239 549.45 641.862 C 536.288 656.325 519.397 665.737 510.001 684.275 C 479.085 732.202 485.307 785.803 458.558 833.591 C 456.111 837.964 451.204 847.607 447.865 850.479 C 429.903 865.933 396.968 881.688 374.759 888.626 C 315.923 907.007 254.68 921.365 195.028 936.746 C 193.443 948.773 192.404 961.185 189.262 972.908 C 182.993 996.294 171.016 1016.72 158.44 1037.06 C 152.21 1047.14 151.021 1052.73 140.22 1059.81 C 136.635 1062.16 130.783 1066.75 128.153 1070.1 C 128.5 1078.27 134.717 1088.95 138.753 1096.07 C 182.919 1174.05 256.852 1246.51 350.702 1253.13 C 363.031 1254.01 375.353 1253.21 387.495 1253.51 C 427.366 1254.51 465.39 1253.66 504.525 1244.81 C 518.534 1241.64 551.721 1225.89 564.231 1231.48 C 568.616 1238.67 552.732 1248.97 547.337 1253.11 C 561.228 1254.13 574.934 1253.47 588.665 1254.22 C 596.345 1254.64 608.299 1258.28 615.97 1260.51 C 639.799 1267.44 666.95 1280.09 683.331 1299.5 C 712.386 1333.92 715.787 1384.02 716.886 1427.23 C 716.987 1431.42 720.299 1435.41 720.738 1439.55 C 721.626 1459.84 721.264 1481.78 719.725 1501.94 C 718.809 1513.93 716.094 1544.66 722.132 1553.96 L 723.691 1554.2 C 744.432 1533.74 771.269 1498.22 790.172 1475.2 C 798.176 1465.45 808.669 1456.32 817.178 1446.66 C 822.537 1445.87 836.837 1428.7 840.487 1423.89 C 841.677 1422.32 841.136 1422.16 840.732 1420.44 C 842.472 1417.4 853.175 1410.33 857.03 1406.85 C 868.681 1396.4 878.949 1384.41 890.384 1373.74 C 905.54 1359.66 914.417 1341.94 930.257 1328.42 C 944.21 1315.86 956.536 1300.84 968.219 1286.17 C 989.295 1259.72 1026.79 1219.52 1037.45 1188.1 C 1028.61 1191.13 1019.27 1193.06 1010.21 1195.34 C 971.604 1205.09 936.969 1207.29 898.485 1195.09 C 884.615 1190.69 870.404 1185.21 858.137 1177.31 C 850.429 1172.35 843.279 1166.54 835.526 1161.63 C 829.069 1157.55 820.491 1153.87 815.263 1148.34 C 812.129 1145.03 810.557 1139.85 808.024 1136.03 C 804.843 1131.23 800.624 1126.95 797.157 1122.32 C 788.668 1110.97 780.782 1098.98 774.335 1086.36 C 752.36 1043.33 742.957 999.551 737.918 951.992 C 736.645 939.979 734.921 928.042 734.739 915.939 C 734.54 902.74 736.018 889.248 737.023 876.073 C 741.162 821.806 750.484 769.505 767.14 717.603 C 773.14 698.907 787.177 656.333 804.934 647.953 C 810.247 645.446 816.416 645.934 821.757 648.104 C 835.065 653.511 838.074 665.751 838.759 678.763 C 840.332 708.671 831.695 740.825 827.108 770.399 C 814.71 850.339 807.601 961.111 840.576 1035.87 C 856.666 1072.34 880.225 1103.74 918.642 1118.19 C 950.156 1130.05 985.145 1122.7 1014.8 1108.98 C 1053.24 1091.19 1084.25 1058.58 1111.02 1026.68 C 1142.3 989.408 1169.54 952.088 1186.24 905.734 C 1203.32 858.304 1203.98 805.803 1183.97 759.156 C 1176.21 741.077 1165.95 724.852 1155.8 708.092 C 1145.7 691.404 1136.03 674.281 1124.41 658.572 C 1116.84 648.337 1090.65 620.659 1087.21 613.104 C 1087.03 612.71 1086.87 612.31 1086.7 611.913 C 1080.04 607.948 1032.06 560.149 1029.28 553.134 C 1027.25 546.489 986.738 520.811 978.852 516.614 C 964.349 508.557 948.83 503.387 933.399 497.437 C 923.531 493.631 912.145 494.833 903.673 487.834 C 897.241 482.521 891.399 476.206 886.859 469.207 C 859.287 426.701 830.437 384.497 795.49 347.644 C 787.491 339.209 775.555 332.563 770.797 321.613 C 765.736 310.318 753.601 301.165 745.284 292.002 C 721.121 265.452 694.67 240.16 666.772 217.552 C 661.058 212.921 656.115 205.534 650.131 200.602 C 623.146 178.359 596.197 154.736 566.736 135.82 C 562.371 133.016 554.969 129.679 551.426 126.323 C 549.074 139.522 552.533 172.523 554.141 186.67 C 564.542 274.368 581.948 361.093 606.19 446.014 C 610.021 459.662 615.818 481.98 621.579 494.034 z M 1295.16 542.561 C 1255.96 543.802 1220.9 548.701 1183.1 558.299 C 1175.78 560.156 1164.78 562.473 1158.08 565.319 C 1157.27 568.095 1158.08 570.719 1159.71 573.127 C 1171.57 590.63 1185.3 606.328 1197.22 623.915 C 1216.8 652.803 1235.69 681.337 1250.29 713.164 C 1284.39 781.075 1289.24 834.383 1270.1 907.299 C 1264.2 930.125 1254.83 951.959 1247.35 974.243 C 1208.5 1090.02 1144.26 1194.1 1070.45 1290.62 C 1059.09 1305.47 1046.54 1319.58 1035.66 1334.66 C 1023.71 1351.22 1054.58 1370.17 1066.24 1378.86 C 1122.56 1421.42 1187.42 1451.29 1256.37 1466.42 C 1379.02 1492.08 1507.78 1464.14 1612.77 1397.07 C 1632.34 1384.69 1652.87 1369.88 1670.08 1354.19 C 1673.98 1350.64 1682.64 1337.68 1685.52 1335.52 C 1699.52 1325.02 1716.04 1313.87 1723.48 1296.82 C 1722.69 1292.93 1723.56 1294.58 1720.72 1291.74 C 1716.16 1291.68 1716.8 1292.35 1713.73 1290.19 C 1714.55 1288.38 1713.96 1289.18 1715.55 1287.82 C 1709.37 1277.7 1669.96 1273.43 1674.85 1253.76 C 1680.7 1230.26 1713.53 1240.88 1730.47 1242.14 C 1739.55 1242.81 1750.28 1246.9 1759.19 1242.64 C 1765.66 1239.83 1771.71 1228.34 1770.24 1221.62 C 1758.99 1210.88 1721.18 1219.68 1699.09 1205.28 C 1697.06 1201.8 1695.79 1199.36 1694.1 1195.71 C 1697.98 1188.43 1701.23 1181.2 1710.21 1179.54 C 1725.43 1176.74 1742.68 1173.01 1758.04 1171.94 C 1779.8 1170.43 1802.7 1168.47 1799.87 1139.1 C 1791.27 1127.73 1708.69 1164.42 1692.98 1145.67 C 1686.12 1137.49 1692.1 1123.83 1700.6 1119.05 C 1729.39 1102.87 1760.76 1092.34 1791.83 1081.48 C 1799.27 1078.88 1813.94 1074.46 1814.93 1064.87 C 1827.23 945.777 1798.13 810.216 1712.12 722.664 C 1710.46 720.98 1710.34 719.551 1709.85 717.378 C 1708.84 711.483 1699.95 703.171 1695.5 698.356 C 1661.83 662.604 1623.27 631.8 1580.96 606.863 C 1497.64 557.744 1391.15 536.568 1295.16 542.561 z M 1798.06 322.959 C 1792.89 327.377 1787.6 329.626 1781.97 333.31 C 1771.66 340.06 1761.61 347.19 1751.83 354.686 C 1736.56 366.551 1721.7 383.881 1707.1 394.856 C 1689.67 407.962 1678.69 413.607 1665.8 433.143 C 1662.5 438.141 1647.73 447.471 1643.42 452.99 C 1625.01 472.813 1603.24 496.909 1588.58 519.363 C 1618.52 537.188 1665.61 564.172 1691.4 586.818 C 1704.91 596.75 1732.26 620.969 1744.13 633.561 C 1760.48 650.902 1768.17 661.681 1787.43 678.181 C 1798.11 643.257 1798.28 607.011 1802.75 571.425 C 1807.58 532.955 1805.24 502.119 1805.22 464.332 C 1805.2 416.917 1806.59 371.756 1799.22 324.477 L 1798.06 322.959 z"/>
<path transform="translate(0,0)" fill="rgba(0, 0, 0, 1)" d="M 585.473 768.272 C 651.743 765.116 664.513 859.42 605.348 874.939 C 593.549 875.771 584.337 875.936 573.918 869.466 C 535.727 845.752 535.582 777.967 585.473 768.272 z"/>
<path transform="translate(0,0)" fill="rgba(0, 0, 0, 1)" d="M 1175.02 1287.55 C 1187.38 1283.92 1192.72 1286.05 1203.1 1293.3 C 1222.36 1306.76 1247.75 1313.42 1268.82 1299.3 C 1299.96 1278.43 1323.11 1252.57 1315.53 1212.46 C 1314.98 1209.54 1299.84 1201.8 1297.72 1197.28 C 1276.41 1174.45 1239.36 1146.92 1247.81 1111.44 C 1249.23 1105.48 1258.99 1093.09 1264.42 1091.69 C 1302.24 1081.97 1359 1080.69 1397.64 1085.21 C 1404.8 1086.1 1411.86 1087.69 1418.71 1089.96 C 1440.56 1097.12 1451.9 1113.44 1444.07 1136.03 C 1443.23 1138.44 1427.53 1166.74 1426.43 1167.97 C 1417.96 1178.36 1396.46 1199.45 1386.16 1208.58 C 1384.18 1211.55 1376.7 1216.22 1376.54 1216.9 C 1367.54 1253.73 1395.84 1286.87 1427.01 1301.27 C 1445.65 1309.88 1468.96 1310.49 1484.42 1298.26 C 1504.11 1282.7 1520.6 1276.65 1533.17 1304.24 C 1538.8 1317.65 1521.89 1335.06 1511.71 1342.66 C 1500 1351.39 1485.77 1358.66 1470.96 1361.55 C 1440.59 1368.02 1406.4 1361.62 1381.05 1343.51 C 1369.67 1335.48 1358.33 1324.89 1346.53 1317.93 C 1338.58 1322.61 1330.18 1330.6 1322.68 1336.32 C 1303.1 1351.24 1276.74 1363.42 1251.75 1363.63 C 1225 1363.79 1198.27 1355.74 1178.81 1336.78 C 1163.67 1322.02 1157.62 1303.61 1175.02 1287.55 z"/>
<path transform="translate(0,0)" fill="rgba(143, 141, 146, 1)" d="M 1386.16 1208.58 L 1385.54 1206.8 C 1387.9 1199.82 1414.78 1176.01 1421.35 1169.8 C 1423.68 1167.6 1424.11 1167.67 1426.43 1167.97 C 1417.96 1178.36 1396.46 1199.45 1386.16 1208.58 z"/>
<path transform="translate(0,0)" fill="rgba(0, 0, 0, 1)" d="M 1515.01 886.301 C 1528.25 885.006 1540.16 887.302 1551.32 894.871 C 1564.02 903.499 1572.75 916.847 1575.55 931.943 C 1579.7 954.383 1571.99 981.833 1553.45 995.933 C 1545.57 1001.92 1540.5 1002.99 1531.12 1004.65 C 1451.47 1013.03 1448.01 894.923 1515.01 886.301 z"/>
<path transform="translate(0,0)" fill="rgba(0, 0, 0, 1)" fill-opacity="0.223529" d="M 1721.08 1226.36 C 1723.65 1226.06 1747.06 1228.22 1749.06 1229.43 C 1740.39 1229.93 1727.38 1233.47 1721.08 1226.36 z"/>
<path transform="translate(0,0)" fill="rgba(0, 0, 0, 1)" fill-opacity="0.270588" d="M 1742.52 1158.11 C 1746.55 1157.74 1747.11 1157.74 1751.1 1158.28 L 1750.81 1159.24 L 1746.59 1161.08 L 1740.26 1161.52 L 1739.75 1160.63 L 1742.52 1158.11 z"/>
<path transform="translate(0,0)" fill="rgba(204, 204, 198, 1)" d="M 1029.28 553.134 C 1036.36 554.121 1083.27 603.776 1086.7 611.913 C 1080.04 607.948 1032.06 560.149 1029.28 553.134 z"/>
<path transform="translate(0,0)" fill="rgba(143, 141, 146, 1)" fill-opacity="0.984314" d="M 840.732 1420.44 C 841.136 1422.16 841.677 1422.32 840.487 1423.89 C 836.837 1428.7 822.537 1445.87 817.178 1446.66 C 823.009 1435.83 831.756 1428.86 840.732 1420.44 z"/>
<path transform="translate(0,0)" fill="rgba(0, 0, 0, 1)" d="M 1129.87 1582.19 C 1205.28 1578.83 1195.26 1705.17 1134.25 1717.66 C 1110.69 1720.25 1090.3 1708.8 1084.32 1685.04 C 1074.8 1647.18 1088.1 1594.69 1129.87 1582.19 z"/>
<path transform="translate(0,0)" fill="rgba(0, 0, 0, 1)" d="M 983.272 1582.36 C 1026.27 1580.06 1048.26 1628.36 1046.08 1665.22 C 1044.76 1687.47 1037.84 1700.84 1021.61 1715.68 L 1011.59 1718.08 C 1000.24 1718.69 991.195 1718.52 980.929 1712.32 C 945.949 1691.22 938.011 1637.67 956.919 1603.51 C 962.873 1592.75 971.48 1585.54 983.272 1582.36 z"/>
<path transform="translate(0,0)" fill="rgba(0, 0, 0, 1)" d="M 1223.82 1696.23 C 1243.68 1694.67 1263.63 1702.46 1268.95 1722.73 C 1279.23 1761.91 1260.63 1803.75 1221.88 1816.15 C 1210.91 1817.5 1201.26 1816.7 1191.76 1810.32 C 1181.43 1803.27 1174.44 1792.3 1172.42 1779.96 C 1167.47 1749.82 1190.9 1701.19 1223.82 1696.23 z"/>
<path transform="translate(0,0)" fill="rgba(0, 0, 0, 1)" d="M 897.685 1694.41 C 907.511 1695.02 917.611 1700.5 925.27 1706.41 C 942.992 1720.18 954.413 1740.52 956.952 1762.82 C 958.604 1776.37 956.114 1791.61 947.193 1802.34 C 940.417 1810.44 930.771 1815.59 920.277 1816.73 C 872.405 1815.86 841.698 1747.82 868.032 1708.17 C 875.492 1696.94 885.291 1696.02 897.685 1694.41 z"/>
<path transform="translate(0,0)" fill="rgba(0, 0, 0, 1)" d="M 965.202 1950 C 956.412 1935.12 935.166 1936.42 931.126 1909.34 C 924.185 1862.81 959.753 1838.49 985.694 1806.4 C 994.779 1795.2 1000.94 1781.41 1010.83 1769.9 C 1015.16 1764.83 1020.13 1760.34 1025.61 1756.55 C 1044.38 1743.32 1055.15 1741.21 1079.02 1745.01 C 1099.29 1748.23 1117.99 1767.43 1130.39 1782.83 C 1154.07 1823.3 1209.13 1853.54 1200.04 1906.28 C 1195.61 1931.95 1181.37 1935.94 1164.82 1950 L 1123.21 1950 C 1112.94 1937.22 1069.08 1928.05 1052.69 1932.82 C 1041.56 1936.06 1017.04 1940.15 1009.88 1950 L 965.202 1950 z"/>
</g></svg></svg><svg x="217" y="643" width="652" height="154" xmlns="http://www.w3.org/2000/svg" style="display:block" preserveAspectRatio="none"><g><path d="M29.20 110.30Q21.50 110.30 15.55 107.20Q9.60 104.10 6.25 98.45Q2.90 92.80 2.90 85.30Q2.90 78.10 6.40 71.95Q9.90 65.80 16.20 62.05Q22.50 58.30 30.80 58.30Q38.50 58.30 44.40 61.40Q50.30 64.50 53.60 70.20Q56.90 75.90 56.90 83.60Q56.90 88.40 54.90 93.15Q52.90 97.90 49.20 101.80Q45.50 105.70 40.45 108.00Q35.40 110.30 29.20 110.30ZM30.90 109.20Q37.70 109.20 40.40 102.75Q43.10 96.30 43.10 85.20Q43.10 80.50 42.30 75.90Q41.50 71.30 39.85 67.55Q38.20 63.80 35.65 61.55Q33.10 59.30 29.60 59.30Q24.60 59.30 21.90 62.35Q19.20 65.40 18.15 70.85Q17.10 76.30 17.10 83.60Q17.10 88.20 17.85 92.75Q18.60 97.30 20.25 101.00Q21.90 104.70 24.55 106.95Q27.20 109.20 30.90 109.20ZM84.10 110.30Q82.50 110.30 81.15 110.10Q79.80 109.90 78.50 109.60L78.50 135.60L85.60 135.60Q86.20 135.60 86.20 136.05Q86.20 136.50 85.60 136.50Q85.30 136.50 83.15 136.45Q81.00 136.40 78.20 136.40Q75.40 136.40 73.10 136.35Q70.80 136.30 70.20 136.30Q69.50 136.30 67.25 136.35Q65.00 136.40 62.60 136.45Q60.20 136.50 58.70 136.50Q58.10 136.50 58.10 136.05Q58.10 135.60 58.70 135.60Q62.10 135.60 63.65 134.95Q65.20 134.30 65.65 131.80Q66.10 129.30 66.10 123.90L66.10 73.40Q66.10 69.10 65.55 67.25Q65.00 65.40 63.50 65.10Q62.00 64.80 59.10 65.30Q58.50 65.40 58.50 64.95Q58.50 64.50 59.10 64.40Q61.70 64.10 65.20 62.90Q68.70 61.70 71.90 60.25Q75.10 58.80 76.80 57.90Q77.00 57.70 77.80 57.95Q78.60 58.20 78.60 58.60L78.60 68.60Q86.50 58.30 97.30 58.30Q103.20 58.30 107.40 61.15Q111.60 64.00 113.80 68.80Q116.00 73.60 116.00 79.60Q116.00 89.10 111.90 96.00Q107.80 102.90 100.60 106.60Q93.40 110.30 84.10 110.30ZM89.90 63.00Q86.70 63.00 83.85 64.75Q81.00 66.50 78.60 69.70Q78.60 76.50 78.60 85.25Q78.60 94.00 78.50 102.70Q80.50 105.10 83.30 106.85Q86.10 108.60 90.10 108.60Q96.80 108.60 100.00 102.45Q103.20 96.30 103.20 85.10Q103.20 78.70 101.75 73.70Q100.30 68.70 97.35 65.85Q94.40 63.00 89.90 63.00ZM148.00 110.30Q140.40 110.30 134.75 107.30Q129.10 104.30 126.00 98.90Q122.90 93.50 122.90 86.30Q122.90 80.90 125.30 75.90Q127.70 70.90 131.85 66.90Q136.00 62.90 141.40 60.60Q146.80 58.30 152.80 58.30Q159.70 58.30 163.65 60.25Q167.60 62.20 169.25 65.10Q170.90 68.00 170.80 70.80Q170.70 72.80 169.40 73.75Q168.10 74.70 163.20 74.70L134.60 74.70Q134.30 76.90 134.30 79.50Q134.30 86.00 137.15 90.80Q140.00 95.60 145.10 98.20Q150.20 100.80 156.70 100.80Q165.40 100.80 171.40 95.10Q177.40 89.40 180.50 79.20Q180.70 78.60 181.00 78.65Q181.30 78.70 181.10 79.40Q179.60 84.50 177.05 89.45Q174.50 94.40 171.10 98.60Q167.70 102.80 163.70 105.50Q160.20 107.80 156.45 109.05Q152.70 110.30 148.00 110.30ZM148.90 60.00Q143.40 60.00 139.60 63.65Q135.80 67.30 134.70 74.10Q140.50 74.00 144.80 73.85Q149.10 73.70 152.70 73.60Q154.10 73.40 155.20 73.05Q156.30 72.70 156.70 72.40Q158.10 71.30 158.10 68.50Q158.10 66.50 157.15 64.55Q156.20 62.60 154.20 61.30Q152.20 60.00 148.90 60.00ZM175.50 109.30Q174.90 109.30 174.90 108.85Q174.90 108.40 175.50 108.40Q177.40 108.40 178.40 107.70Q179.40 107.00 179.80 104.65Q180.20 102.30 180.20 97.40L180.20 73.50Q180.20 71.30 178.75 69.40Q177.30 67.50 175.60 65.90Q175.20 65.50 175.60 65.30Q176.30 65.00 178.00 64.20Q179.70 63.40 181.75 62.30Q183.80 61.20 185.55 60.15Q187.30 59.10 188.00 58.50Q188.30 58.20 188.60 58.60Q190.00 59.90 191.35 63.10Q192.70 66.30 192.70 69.50Q196.30 64.70 200.75 61.50Q205.20 58.30 211.00 58.30Q218.40 58.30 222.65 63.00Q226.90 67.70 226.90 78.50L226.90 99.50Q226.90 103.70 227.40 105.60Q227.90 107.50 228.90 107.95Q229.90 108.40 231.40 108.40Q232.00 108.40 232.00 108.85Q232.00 109.30 231.40 109.30Q231.10 109.30 229.25 109.25Q227.40 109.20 224.95 109.20Q222.50 109.20 220.50 109.15Q218.50 109.10 217.90 109.10Q216.80 109.10 214.20 109.20Q211.60 109.30 209.40 109.30Q208.80 109.30 208.80 108.85Q208.80 108.40 209.40 108.40Q211.50 108.40 212.60 107.85Q213.70 107.30 214.15 105.30Q214.60 103.30 214.60 98.90L214.50 78.10Q214.40 70.00 211.70 66.60Q209.00 63.20 204.70 63.20Q201.30 63.20 198.50 64.95Q195.70 66.70 192.80 70.60L192.80 108.40L198.00 108.40Q198.60 108.40 198.60 108.85Q198.60 109.30 198.00 109.30Q197.70 109.30 195.95 109.25Q194.20 109.20 191.95 109.20Q189.70 109.20 187.80 109.15Q185.90 109.10 185.30 109.10Q184.60 109.10 182.80 109.15Q181.00 109.20 179.00 109.25Q177.00 109.30 175.50 109.30ZM264.10 84.80Q261.70 84.80 258.85 84.70Q256.00 84.60 253.45 84.50Q250.90 84.40 249.50 84.40L249.10 85.40Q247.80 88.80 246.80 93.00Q245.80 97.20 245.90 100.80Q245.90 104.50 247.85 106.45Q249.80 108.40 253.00 108.40Q254.10 108.40 255.10 108.25Q256.10 108.10 256.40 108.10Q257.10 108.10 257.10 108.60Q257.10 109.30 255.90 109.30Q255.20 109.30 253.05 109.25Q250.90 109.20 248.25 109.20Q245.60 109.20 243.45 109.15Q241.30 109.10 240.70 109.10Q239.70 109.10 237.20 109.20Q234.70 109.30 232.80 109.30Q232.20 109.30 232.20 108.70Q232.20 108.30 232.80 108.30L233.10 108.30Q234.70 108.30 236.45 107.10Q238.20 105.90 239.90 102.80Q241.80 99.60 243.85 95.00Q245.90 90.40 248.50 83.20L264.60 40.50Q264.90 39.70 265.80 39.70L270.30 39.70Q271.40 39.70 271.70 40.40L289.10 83.40Q292.70 92.20 295.05 97.30Q297.40 102.40 298.90 104.70Q300.40 107.00 301.60 107.65Q302.80 108.30 304.10 108.30L304.60 108.30Q305.30 108.30 305.30 108.80Q305.30 109.30 304.70 109.30Q302.50 109.30 299.80 109.15Q297.10 109.00 296.00 109.00Q295.40 109.00 292.95 109.05Q290.50 109.10 287.35 109.15Q284.20 109.20 281.50 109.25Q278.80 109.30 277.70 109.30Q277.10 109.30 276.95 108.85Q276.80 108.40 277.40 108.40L279.50 108.40Q281.50 108.40 282.55 107.75Q283.60 107.10 283.35 104.80Q283.10 102.50 281.45 97.70Q279.80 92.90 276.40 84.50ZM275.90 83.40L262.20 49.90L249.80 83.60L263.50 83.40L275.90 83.50ZM305.90 109.30Q305.30 109.30 305.30 108.85Q305.30 108.40 305.90 108.40Q307.40 108.40 308.35 108.40Q309.30 108.40 309.90 108.30Q311.00 107.50 311.45 105.20Q311.90 102.90 312.10 97.50Q312.20 94.50 312.25 89.95Q312.30 85.40 312.30 79.40L312.30 64.10Q312.30 55.80 312.15 51.05Q312.00 46.30 311.50 44.15Q311.00 42.00 309.90 41.45Q308.80 40.90 307.00 40.90L305.80 40.90Q305.20 40.90 305.20 40.45Q305.20 40.00 305.80 40.00Q307.20 40.00 309.80 40.05Q312.40 40.10 314.85 40.15Q317.30 40.20 318.00 40.20Q318.50 40.20 320.85 40.15Q323.20 40.10 326.10 40.10Q329.00 40.10 331.40 40.05Q333.80 40.00 334.40 40.00Q348.10 40.00 354.60 44.15Q361.10 48.30 361.10 56.00Q361.10 62.90 354.45 67.15Q347.80 71.40 335.60 72.80Q341.90 72.80 345.95 74.10Q350.00 75.40 352.90 79.00Q355.80 82.60 358.50 89.50Q361.10 95.90 362.80 99.70Q364.50 103.50 365.90 105.40Q367.30 107.30 368.80 107.85Q370.30 108.40 372.40 108.40L373.00 108.40Q373.70 108.40 373.70 108.85Q373.70 109.30 372.90 109.30L369.20 109.30Q364.90 109.30 362.15 109.50Q359.40 109.70 358.20 109.70Q356.40 109.70 355.05 109.20Q353.70 108.70 352.60 107.40Q351.20 105.60 349.75 102.00Q348.30 98.40 346.30 92.40Q344.30 86.30 342.60 82.60Q340.90 78.90 339.10 76.95Q337.30 75.00 335.15 74.30Q333.00 73.60 330.20 73.50L324.80 73.50L324.80 83.40Q324.80 92.60 324.95 97.75Q325.10 102.90 325.65 105.15Q326.20 107.40 327.30 107.90Q328.40 108.40 330.20 108.40L332.20 108.40Q332.80 108.40 332.80 108.85Q332.80 109.30 332.20 109.30Q331.20 109.30 329.15 109.25Q327.10 109.20 324.90 109.20Q322.70 109.20 320.95 109.15Q319.20 109.10 318.70 109.10Q318.10 109.10 316.20 109.15Q314.30 109.20 312.05 109.20Q309.80 109.20 308.00 109.25Q306.20 109.30 305.90 109.30ZM324.80 51.90L324.80 72.40Q326.20 72.30 328.05 72.30Q329.90 72.30 332.20 72.30Q336.00 72.30 339.40 70.65Q342.80 69.00 344.95 65.45Q347.10 61.90 347.10 56.30Q347.10 40.90 332.40 40.90Q331.50 40.90 330.05 40.90Q328.60 40.90 327.80 41.00Q326.50 41.00 325.85 41.60Q325.20 42.20 325.00 44.50Q324.80 46.80 324.80 51.90ZM372.50 109.30Q371.90 109.30 371.90 108.85Q371.90 108.40 372.50 108.40L372.90 108.40Q374.40 108.40 375.70 107.75Q377.00 107.10 377.95 104.75Q378.90 102.40 379.50 97.35Q380.10 92.30 380.10 83.40Q380.10 79.10 380.10 74.10Q380.10 69.10 380.15 64.20Q380.20 59.30 380.20 55.30Q380.20 51.30 380.20 49.20Q380.20 47.60 379.85 46.05Q379.50 44.50 378.60 43.60Q377.50 42.20 376.10 41.50Q374.70 40.80 372.70 40.80L372.40 40.80Q371.90 40.80 371.90 40.40Q371.90 40.00 372.40 40.00Q381.80 40.00 385.85 39.60Q389.90 39.20 390.50 39.20Q391.30 39.20 391.70 40.10Q392.30 41.30 393.30 43.20Q394.30 45.10 395.60 47.40L413.70 78.20L430.80 48.90Q431.90 46.90 432.95 44.95Q434.00 43.00 434.50 42.00Q436.00 39.50 438.00 39.50Q439.40 39.50 443.75 39.75Q448.10 40.00 453.20 40.00Q453.80 40.00 453.80 40.45Q453.80 40.90 453.20 40.90L452.10 40.90Q450.30 40.90 449.25 41.45Q448.20 42.00 447.70 44.15Q447.20 46.30 447.05 51.05Q446.90 55.80 446.90 64.10L446.90 85.70Q446.90 94.00 447.05 98.65Q447.20 103.30 447.75 105.35Q448.30 107.40 449.35 107.90Q450.40 108.40 452.20 108.40L453.20 108.40Q453.80 108.40 453.80 108.85Q453.80 109.30 453.20 109.30Q452.20 109.30 449.95 109.25Q447.70 109.20 445.20 109.15Q442.70 109.10 440.70 109.05Q438.70 109.00 438.20 109.00Q437.50 109.00 435.15 109.05Q432.80 109.10 430.30 109.20Q427.80 109.30 426.40 109.30Q425.80 109.30 425.80 108.85Q425.80 108.40 426.40 108.40L428.20 108.40Q430.30 108.40 431.55 107.85Q432.80 107.30 433.40 105.05Q434.00 102.80 434.20 97.65Q434.40 92.50 434.40 83.40L434.40 47.80Q434.40 46.60 433.90 46.60Q433.60 46.60 431.90 49.40L409.70 87.10Q408.80 88.70 408.40 89.35Q408.00 90.00 407.60 90.00L407.20 90.00Q406.90 90.00 406.10 88.70L381.50 46.80L381.40 83.40Q381.40 92.10 382.40 97.10Q383.40 102.10 385.10 104.55Q386.80 107.00 388.80 107.70Q390.80 108.40 392.60 108.40L394.00 108.40Q394.50 108.40 394.50 108.85Q394.50 109.30 394.00 109.30Q392.90 109.30 390.85 109.30Q388.80 109.30 386.55 109.20Q384.30 109.10 382.50 109.05Q380.70 109.00 380.10 109.00Q379.00 109.00 376.80 109.15Q374.60 109.30 372.50 109.30ZM507.00 66.10L507.00 67.10Q507.00 67.90 506.50 67.90Q506.00 67.90 506.00 67.10L506.00 66.00Q505.80 58.90 503.70 53.00Q501.60 47.10 496.95 43.50Q492.30 39.90 484.30 39.90Q476.00 39.90 472.20 43.50Q468.40 47.10 468.40 52.40Q468.40 56.90 471.15 59.85Q473.90 62.80 478.30 64.90Q482.70 67.00 487.60 69.00Q491.70 70.60 495.55 72.35Q499.40 74.10 502.50 76.35Q505.60 78.60 507.45 81.75Q509.30 84.90 509.30 89.30Q509.30 95.40 506.05 100.15Q502.80 104.90 497.15 107.60Q491.50 110.30 484.40 110.30Q478.70 110.30 474.90 109.85Q471.10 109.40 468.00 108.60Q464.90 107.80 461.30 106.90Q460.60 106.70 460.45 106.50Q460.30 106.30 460.30 105.90Q460.40 103.90 460.45 100.10Q460.50 96.30 460.60 91.50Q460.70 86.70 460.70 81.70Q460.70 80.80 461.20 80.80Q461.70 80.80 461.70 81.70Q461.90 89.80 464.60 96.05Q467.30 102.30 472.35 105.85Q477.40 109.40 484.40 109.40Q492.10 109.40 495.45 105.75Q498.80 102.10 498.80 96.60Q498.80 91.90 496.10 89.00Q493.40 86.10 489.00 84.00Q484.60 81.90 479.50 79.90Q475.60 78.40 471.90 76.70Q468.20 75.00 465.20 72.75Q462.20 70.50 460.40 67.35Q458.60 64.20 458.60 59.80Q458.60 53.20 462.10 48.55Q465.60 43.90 471.45 41.45Q477.30 39.00 484.30 39.00Q491.80 39.00 497.15 39.85Q502.50 40.70 506.30 41.70Q506.80 41.80 507.05 42.00Q507.30 42.20 507.40 42.80Q507.60 44.30 507.30 49.70Q507.00 55.10 507.00 66.10Z" transform="translate(69.80, -10.75)" fill="var(--Text-2, #000)" /></g></svg></svg>